<svg xmlns="http://www.w3.org/2000/svg" width="597" height="614" viewBox="0 0 597 614">
  <defs>
    <style>
      .cls-1 {
        fill: #202242;
        fill-rule: evenodd;
        opacity: 0.03;
      }
    </style>
  </defs>
  <path class="cls-1" d="M941.245,1897.55a57.437,57.437,0,0,1-34.931-11.81L794.9,1968.71a103.24,103.24,0,0,1-11.263,80.52l95.416,79.14a57.773,57.773,0,1,1-20.441,24.64l-95.6-79.29a102.909,102.909,0,0,1-51.129,24.1v107.89a57.749,57.749,0,1,1-32.011,0V2098.06a103.112,103.112,0,0,1-56.952-28.45L513.82,2150.84a57.9,57.9,0,1,1-19.134-25.67l109.089-81.23a103.144,103.144,0,0,1-1.82-92.62L507.05,1872.6a57.77,57.77,0,1,1,20.442-24.64l92.683,76.87a103.13,103.13,0,0,1,59.013-31.12V1790.29a57.749,57.749,0,1,1,32.011,0v103.42a103.522,103.522,0,0,1,70.165,45.15l105.816-78.79A57.742,57.742,0,1,1,941.245,1897.55Zm-29.713,304.31a25.75,25.75,0,1,0-25.743-25.75A25.771,25.771,0,0,0,911.532,2201.86Zm-431.127-46.03a0.141,0.141,0,0,0-.034-0.04c-0.011-.02-0.02-0.03-0.031-0.05A27.1,27.1,0,1,0,480.405,2155.83Zm189.728,105.38a25.741,25.741,0,1,0,25.738-25.75A25.772,25.772,0,0,0,670.133,2261.21Zm-195.571-462.1a25.75,25.75,0,1,0,25.748,25.75A25.771,25.771,0,0,0,474.562,1799.11Zm246.369-64.32a25.74,25.74,0,1,0-25.737,25.75A25.771,25.771,0,0,0,720.931,1734.79Zm41.1,236.17a16.162,16.162,0,0,1-1.651-4.02A70.379,70.379,0,1,0,762.027,1970.96Zm179.218-156.94a25.705,25.705,0,0,0-20.653,41.06c0.012,0.01.025,0.03,0.036,0.04a0.137,0.137,0,0,0,.028.04A25.727,25.727,0,1,0,941.245,1814.02Z" transform="translate(-402 -1677)"/>
</svg>
